<svg xmlns="http://www.w3.org/2000/svg" width="32" height="32" enable-background="new 0 0 32 32" viewBox="0 0 32 32" id="web-design">
  <path d="M30,4H2C1.448,4,1,4.448,1,5v22c0,0.552,0.448,1,1,1h28c0.552,0,1-0.448,1-1V5C31,4.448,30.552,4,30,4z M29,26H3V12h13
		c0.552,0,1-0.448,1-1s-0.448-1-1-1H3V6h26V26z"></path>
  <path d="M5 9h1c.552 0 1-.448 1-1S6.552 7 6 7H5C4.448 7 4 7.448 4 8S4.448 9 5 9zM9 9h1c.552 0 1-.448 1-1s-.448-1-1-1H9C8.448 7 8 7.448 8 8S8.448 9 9 9zM13 9h1c.552 0 1-.448 1-1s-.448-1-1-1h-1c-.552 0-1 .448-1 1S12.448 9 13 9zM10.293 19.293C10.105 19.48 10 19.735 10 20v4c0 .552.448 1 1 1h4c.265 0 .52-.105.707-.293l6-6 4.586-4.586c1.17-1.169 1.17-3.073 0-4.242l-1.172-1.172c-1.17-1.17-3.072-1.17-4.242 0l-4.586 4.586L10.293 19.293zM12 23v-2.586L14.586 23H12zM22.293 10.121c.39-.39 1.024-.39 1.414 0l1.172 1.172c.39.39.39 1.024 0 1.414L24 13.586 21.414 11 22.293 10.121zM20 12.414L22.586 15l-2.293 2.293L16 21.586 13.414 19l4.293-4.293L20 12.414z"></path>
</svg>
